<svg version="1.1" id="Layer_1" xmlns="http://www.w3.org/2000/svg" xmlns:xlink="http://www.w3.org/1999/xlink" x="0px" y="0px"
	 width="100%" viewBox="0 0 1536 1024" enable-background="new 0 0 1536 1024" xml:space="preserve">
<path fill="#000000" opacity="1.000000" stroke="none" 
	d="
M1004.000000,1025.000000 
	C669.333313,1025.000000 335.166656,1025.000000 1.000000,1025.000000 
	C1.000000,683.666687 1.000000,342.333344 1.000000,1.000000 
	C513.000000,1.000000 1025.000000,1.000000 1537.000000,1.000000 
	C1537.000000,342.333344 1537.000000,683.666687 1537.000000,1025.000000 
	C1359.500000,1025.000000 1182.000000,1025.000000 1004.000000,1025.000000 
M460.760895,609.345398 
	C459.445435,608.656250 458.129974,607.967102 456.214111,607.284546 
	C455.815430,607.252502 455.416748,607.220459 454.315979,606.710510 
	C451.865417,606.441528 449.415375,605.944397 446.964233,605.939026 
	C424.073120,605.889282 401.181763,605.928650 378.290497,605.932129 
	C366.331879,605.933960 364.274597,604.373779 361.142731,592.189270 
	C361.185974,583.562195 361.226807,574.935120 361.272980,566.308044 
	C361.383789,545.617310 361.603149,524.926392 361.579071,504.235779 
	C361.555756,484.182526 361.254333,464.129700 361.128754,444.076355 
	C361.014160,425.779419 360.971527,407.482025 361.198914,388.502197 
	C362.678253,382.563660 367.006927,379.115509 372.890839,376.091339 
	C400.777649,376.124298 428.664520,376.191864 456.551300,376.174377 
	C469.033691,376.166565 481.515930,375.988251 494.826233,375.961975 
	C502.849152,376.148010 502.872009,376.147888 502.911194,384.484711 
	C502.955780,393.978058 502.888977,403.472321 502.987091,412.964966 
	C503.164062,430.085938 514.796021,441.824738 531.806030,442.055267 
	C541.462891,442.186127 551.123413,442.317566 560.778381,442.176788 
	C564.789124,442.118347 565.995544,443.806885 565.945129,447.552795 
	C565.794983,458.715607 565.840759,469.881226 565.841003,481.045746 
	C565.841064,483.036011 565.747253,485.072998 566.119141,487.007172 
	C566.978027,491.474304 570.352539,493.733215 575.108337,493.712830 
	C579.402832,493.694458 582.393616,492.076141 582.646790,487.572754 
	C583.093628,479.625854 583.379395,471.660187 583.399536,463.701538 
	C583.422974,454.434601 582.502258,445.130768 583.068359,435.909058 
	C583.681335,425.924957 580.323181,418.128571 573.333862,411.351501 
	C560.666138,399.068634 547.914673,386.858032 535.633484,374.195068 
	C525.553833,363.802032 515.087708,356.017059 499.217651,357.599396 
	C486.393646,358.877960 473.348969,357.997406 460.402344,357.976105 
	C447.984192,357.955658 435.566040,357.833405 423.148346,357.708588 
	C413.692352,357.613556 404.149963,356.589264 394.805237,357.541199 
	C384.827820,358.557617 374.812500,355.965546 364.874603,358.957550 
	C354.288818,362.144592 345.037384,372.715790 343.767212,384.659332 
	C343.501495,386.956390 343.005035,389.253265 343.003632,391.550507 
	C342.962860,458.766083 342.979370,525.981689 342.960846,593.197266 
	C342.958801,600.577698 344.645782,607.472534 349.317719,613.240295 
	C350.978302,615.290344 353.719727,616.464966 355.997559,618.002441 
	C355.997559,618.002441 355.965637,618.042358 356.207214,618.692322 
	C358.278839,620.162598 360.270264,622.745483 362.436646,622.901611 
	C369.961334,623.443970 377.546692,623.144287 386.028259,623.173828 
	C390.984161,623.166809 395.940094,623.159790 401.482330,623.341858 
	C402.689178,623.281982 403.896057,623.222107 405.800812,623.182007 
	C406.498901,623.177734 407.197021,623.173462 408.596710,623.393066 
	C410.766113,623.309143 412.935516,623.225159 416.028900,623.155823 
	C423.649475,623.159973 431.270050,623.164062 439.478699,623.355408 
	C440.687836,623.285950 441.896973,623.216431 443.932953,623.155212 
	C445.587372,623.149597 447.241791,623.143982 449.418823,623.302490 
	C450.314178,623.242737 451.209564,623.183044 452.884552,623.160034 
	C453.922577,623.231262 454.960632,623.302429 456.626038,623.594849 
	C460.553101,624.170105 462.617096,621.839783 463.467499,618.573120 
	C464.287018,615.425110 465.134521,611.891479 461.000000,610.000000 
	C461.000000,610.000000 461.032379,609.966858 460.760895,609.345398 
M476.959229,453.920715 
	C483.272858,450.711945 484.290375,445.277069 479.265991,440.731079 
	C479.265991,440.731079 479.127747,440.593567 478.890076,440.056946 
	C477.283417,439.368256 475.676727,438.679596 473.319611,437.609955 
	C471.684540,437.389496 470.049835,436.980072 468.414337,436.977051 
	C446.173126,436.935730 423.931671,436.925140 401.690613,436.996460 
	C399.749237,437.002686 397.809906,437.638489 395.151520,438.057556 
	C390.735992,438.798309 388.626709,441.806549 388.410217,445.885956 
	C388.184570,450.138428 390.550140,452.927887 395.526184,454.411591 
	C397.170013,454.625488 398.813477,455.022644 400.457703,455.025757 
	C423.782806,455.069702 447.108093,455.084595 470.433105,455.019287 
	C472.381927,455.013855 474.328979,454.381104 476.959229,453.920715 
M694.115845,450.880707 
	C686.766785,450.937256 679.417725,450.993805 671.424133,451.294891 
	C669.841431,454.342072 667.888977,457.256531 666.739685,460.459259 
	C661.569824,474.865967 656.656189,489.364380 651.596985,503.811127 
	C644.675049,523.577026 637.666077,543.312561 630.783447,563.092102 
	C629.115051,567.886719 629.767212,568.771362 634.707703,568.891602 
	C639.365173,569.004944 644.028503,568.897095 648.689026,568.855408 
	C651.899658,568.826721 653.960327,567.350098 654.889099,564.160767 
	C656.276184,559.397583 657.939514,554.714294 659.300232,549.944214 
	C661.362549,542.714233 662.015747,542.125977 669.707520,542.106506 
	C679.196655,542.082581 688.688660,542.237122 698.173950,542.044250 
	C702.391479,541.958496 705.147400,543.153381 706.363098,547.504761 
	C707.434570,551.339966 708.999817,555.036804 710.338196,558.797913 
	C714.172241,569.571594 712.215210,568.943909 724.539246,568.912964 
	C729.040894,568.901672 733.541748,568.570129 738.711304,568.357117 
	C737.266418,564.198364 736.255371,561.230347 735.205505,558.276184 
	C729.749634,542.923950 724.316162,527.563599 718.813049,512.228210 
	C712.127319,493.597443 705.422913,474.972961 698.598145,456.392944 
	C697.850525,454.357666 696.258362,452.632599 694.115845,450.880707 
M394.955170,539.066833 
	C414.569031,539.176270 434.183258,539.248901 453.796509,539.425964 
	C457.727020,539.461426 459.064240,536.924561 459.604889,533.855530 
	C460.683380,527.733032 457.260498,523.364929 450.786438,523.290161 
	C433.333405,523.088379 415.870148,523.019348 398.426575,523.483215 
	C395.501221,523.561035 391.098236,525.945007 390.134125,528.362549 
	C388.681427,532.005310 388.643066,537.019897 393.941101,539.055481 
	C393.941101,539.055481 393.798096,539.205566 393.798096,539.205566 
	C393.798096,539.205566 394.024139,538.980286 394.955170,539.066833 
M951.701843,482.654633 
	C951.463501,484.292053 951.020569,485.929108 951.017334,487.566986 
	C950.967773,512.718994 950.947205,537.871155 951.026855,563.023010 
	C951.032898,564.930603 951.846191,566.835754 953.180908,568.638977 
	C957.830200,568.554199 962.482483,568.542908 967.127808,568.358337 
	C970.117981,568.239563 972.111328,567.054382 972.103699,563.526428 
	C972.048889,538.110718 972.065796,512.694824 972.089844,487.278992 
	C972.093506,483.471191 970.116150,481.888947 966.506104,481.896637 
	C961.699951,481.906860 956.893738,481.896576 951.701843,482.654633 
M507.584534,497.773346 
	C513.360901,495.225037 515.239441,491.716827 513.660767,485.923737 
	C512.314331,480.983002 508.392151,481.509796 504.417603,481.525085 
	C484.479401,481.601898 464.540436,481.468597 443.996704,480.902435 
	C443.222809,480.640472 442.450226,480.154419 441.674866,480.150024 
	C429.456512,480.080688 417.237549,480.034943 405.019531,480.111786 
	C403.813019,480.119385 402.611725,480.964630 400.498718,481.569611 
	C399.346619,481.587799 398.193726,481.642487 397.042511,481.617981 
	C391.403656,481.498047 388.438965,484.605408 388.965485,490.093903 
	C389.388123,494.498718 392.146637,496.723938 397.043335,497.916931 
	C433.651733,497.888458 470.260162,497.859985 507.584534,497.773346 
M784.494995,568.966736 
	C785.367676,567.432251 786.472900,565.983032 787.072144,564.348267 
	C789.475281,557.792664 791.660522,551.157532 794.037659,544.592102 
	C800.716248,526.146484 807.506897,507.741119 814.089966,489.261627 
	C814.911377,486.955933 814.748474,484.299622 815.058533,481.662476 
	C808.285706,481.662476 802.493469,481.516846 796.719604,481.777649 
	C795.471008,481.834015 793.560242,483.110443 793.186890,484.234344 
	C789.007690,496.813446 785.153687,509.500183 781.033813,522.099670 
	C778.821045,528.866638 776.263672,535.520996 773.558960,543.071411 
	C771.418762,537.808533 769.497437,533.662964 768.027283,529.363220 
	C763.077942,514.887878 758.369446,500.329681 753.334412,485.884827 
	C752.723694,484.132660 750.769470,481.702728 749.292847,481.596191 
	C742.785461,481.126587 736.224976,481.393311 728.902344,481.393311 
	C729.581665,484.115051 729.858154,485.879272 730.457520,487.525970 
	C739.729431,513.001038 749.010620,538.472900 758.413696,563.899658 
	C759.114380,565.794373 760.759155,567.339966 762.606812,569.193237 
	C769.735535,569.121155 776.864258,569.049011 784.494995,568.966736 
M1198.066040,520.981201 
	C1198.066040,520.981201 1197.988647,521.197449 1197.988647,521.197449 
	C1197.988647,521.197449 1197.906860,520.983826 1197.890991,520.186401 
	C1197.954102,515.859070 1197.899658,511.525818 1198.118408,507.206390 
	C1198.284912,503.915985 1196.897461,502.868164 1193.714478,502.912567 
	C1184.055542,503.047302 1174.393433,502.957428 1164.732544,502.955231 
	C1162.598022,502.954742 1160.463623,502.955170 1158.329102,502.955170 
	C1158.354248,502.581879 1158.379395,502.208557 1158.404541,501.835266 
	C1170.855957,501.835266 1183.307251,501.835266 1195.758667,501.835266 
	C1184.125244,501.303406 1172.490723,501.189423 1160.860474,501.362885 
	C1156.564941,501.426941 1154.390137,500.299683 1154.632935,495.486389 
	C1154.959717,489.006622 1154.848999,482.494659 1154.671509,476.003448 
	C1154.567017,472.183838 1155.969849,470.618561 1159.886475,470.681732 
	C1169.877930,470.842926 1179.873657,470.760986 1189.867554,470.728149 
	C1204.394043,470.680389 1203.734497,472.599335 1203.673340,456.572510 
	C1203.658203,452.594849 1202.427979,451.074707 1198.143188,451.115814 
	C1178.157349,451.307678 1158.166626,451.263489 1138.181152,451.021484 
	C1134.312378,450.974640 1133.192017,452.316315 1133.196167,455.863434 
	C1133.237671,491.675415 1133.225464,527.487488 1133.177734,563.299438 
	C1133.172852,567.025574 1134.701782,568.880066 1138.526855,568.786377 
	C1141.855957,568.704712 1145.194214,568.663086 1148.519165,568.811157 
	C1152.968994,569.009155 1154.810303,567.056396 1154.760620,562.583679 
	C1154.629272,550.758972 1154.709595,538.931519 1154.758423,527.105347 
	C1154.766357,525.183777 1155.044189,523.263245 1155.226562,520.974792 
	C1169.798340,520.974792 1183.864014,520.974792 1198.066040,520.981201 
M555.185791,658.503296 
	C557.011108,658.580627 558.885254,658.967285 560.654297,658.688171 
	C582.082092,655.307922 598.767883,643.939758 610.869202,626.500427 
	C622.704346,609.444519 626.746399,590.170532 622.730286,569.508911 
	C619.508118,552.932312 611.650879,538.859314 598.992065,527.809082 
	C582.451477,513.370300 563.225891,506.847656 541.034668,508.978149 
	C524.822571,510.534607 510.534912,516.635071 498.822174,527.361755 
	C482.758179,542.073364 474.283478,560.498535 474.102417,582.921753 
	C473.904938,607.374146 483.505615,626.727295 501.648956,642.257202 
	C516.611389,655.064392 534.150818,660.523804 554.061279,658.915588 
	C554.061279,658.915588 554.328552,658.577942 555.185791,658.503296 
M834.635559,509.438904 
	C836.700317,508.413849 838.995850,507.681793 840.768066,506.285431 
	C842.731750,504.738251 844.019287,502.347565 845.945496,500.735626 
	C853.491333,494.420746 866.225830,498.100616 869.035950,507.293091 
	C871.228943,514.466614 869.959595,516.033936 862.387329,516.276428 
	C852.379761,516.596741 842.215637,516.424500 832.903931,520.891235 
	C825.684509,524.354370 819.465881,529.103760 817.815674,537.569702 
	C817.227051,540.589417 817.997559,543.850098 817.649109,546.944641 
	C816.197083,559.838196 826.253296,567.327209 835.223267,569.534485 
	C846.875977,572.401917 858.048340,570.617676 867.178284,561.754456 
	C867.728271,561.220581 868.503235,560.918518 869.140076,560.529053 
	C869.545837,560.984314 869.848450,561.186707 869.943359,561.460938 
	C870.103821,561.924622 870.236755,562.441284 870.201416,562.922485 
	C869.796387,568.435303 872.513489,569.859924 877.591553,569.123047 
	C880.682068,568.674500 883.956482,568.752625 887.046509,569.239990 
	C890.436218,569.774597 891.787292,568.530640 891.792358,565.393921 
	C891.822937,546.325012 892.577637,527.215271 891.554199,508.201843 
	C890.886780,495.802032 884.098267,486.431885 871.378296,482.441986 
	C862.574036,479.680389 853.688965,479.327057 844.779846,481.199860 
	C835.355164,483.181061 827.480225,487.620483 822.399780,496.345551 
	C818.427368,503.167725 819.776001,506.706696 827.471436,508.122009 
	C829.593506,508.512299 831.723328,508.860565 834.635559,509.438904 
M1038.964478,509.106110 
	C1039.072266,515.878540 1038.874634,516.004028 1032.086182,516.227539 
	C1020.962524,516.593750 1009.813110,516.684509 999.536560,522.063843 
	C984.518372,529.925232 981.273193,550.834045 993.125061,562.961426 
	C1002.619446,572.676331 1023.134216,574.078674 1035.313232,562.377625 
	C1036.299683,561.429871 1037.447876,560.650391 1038.767700,559.595520 
	C1040.202759,568.378601 1040.202637,568.386108 1048.824829,568.472046 
	C1050.989746,568.493591 1053.155396,568.457642 1055.320435,568.434570 
	C1058.811157,568.397400 1060.429443,566.636108 1060.452271,563.135803 
	C1060.572754,544.709717 1061.198120,526.272400 1060.727661,507.862518 
	C1060.460083,497.394318 1054.920044,489.234863 1045.289551,484.482269 
	C1034.821045,479.316162 1023.843628,479.049835 1012.683838,481.786652 
	C1001.971497,484.413757 993.695496,489.958405 990.931946,501.289764 
	C990.472168,503.175110 991.452087,507.022064 992.608459,507.402222 
	C996.806702,508.782501 1001.378723,509.651184 1005.777222,509.530334 
	C1007.945251,509.470764 1011.336975,507.211517 1011.918701,505.271149 
	C1013.423462,500.251831 1016.585388,498.258636 1021.240906,497.867737 
	C1030.757812,497.068695 1034.766968,499.522858 1038.964478,509.106110 
M930.098877,522.594543 
	C930.098877,497.105927 930.098877,471.617279 930.098877,446.074951 
	C924.433838,446.074951 919.780457,446.052643 915.127380,446.080475 
	C908.861328,446.117920 908.202759,446.767517 908.201599,452.952820 
	C908.197632,474.421967 908.210938,495.891144 908.214661,517.360291 
	C908.217285,532.505249 908.214966,547.650146 908.215454,562.795105 
	C908.215576,565.705750 908.127930,568.903259 912.123657,569.059814 
	C917.809692,569.282654 923.511047,569.116516 930.216064,569.116516 
	C930.216064,553.297485 930.216064,538.249390 930.098877,522.594543 
M1101.420898,568.770569 
	C1109.693481,568.732605 1109.780273,568.614868 1109.809570,560.327454 
	C1109.932007,525.693848 1110.090332,491.060333 1110.174683,456.426636 
	C1110.180786,453.905548 1109.898560,451.233124 1106.298828,451.231964 
	C1101.014771,451.230286 1095.730713,451.231537 1090.054443,451.231537 
	C1089.921631,453.947174 1089.712646,456.243530 1089.711548,458.540039 
	C1089.695557,491.692596 1089.725952,524.845154 1089.703125,557.997742 
	C1089.694824,570.124084 1089.157959,568.685120 1101.420898,568.770569 
M949.120789,457.705566 
	C949.562866,460.450775 949.406128,463.485596 950.566040,465.883667 
	C953.382446,471.706787 960.628906,473.815582 967.460938,471.356567 
	C973.498657,469.183441 976.859131,463.112122 975.619019,456.617188 
	C974.179443,449.077545 969.082153,445.270233 960.924255,445.641174 
	C953.444763,445.981323 949.961914,449.326813 949.120789,457.705566 
z"/>
<path fill="#00502B" opacity="1.000000" stroke="none" 
	d="
M344.152039,383.906250 
	C345.037384,372.715790 354.288818,362.144592 364.874603,358.957550 
	C374.812500,355.965546 384.827820,358.557617 394.805237,357.541199 
	C404.149963,356.589264 413.692352,357.613556 423.148346,357.708588 
	C435.566040,357.833405 447.984192,357.955658 460.402344,357.976105 
	C473.348969,357.997406 486.393646,358.877960 499.217651,357.599396 
	C515.087708,356.017059 525.553833,363.802032 535.633484,374.195068 
	C547.914673,386.858032 560.666138,399.068634 573.333862,411.351501 
	C580.323181,418.128571 583.681335,425.924957 583.068359,435.909058 
	C582.502258,445.130768 583.422974,454.434601 583.399536,463.701538 
	C583.379395,471.660187 583.093628,479.625854 582.646790,487.572754 
	C582.393616,492.076141 579.402832,493.694458 575.108337,493.712830 
	C570.352539,493.733215 566.978027,491.474304 566.119141,487.007172 
	C565.747253,485.072998 565.841064,483.036011 565.841003,481.045746 
	C565.840759,469.881226 565.794983,458.715607 565.945129,447.552795 
	C565.995544,443.806885 564.789124,442.118347 560.778381,442.176788 
	C551.123413,442.317566 541.462891,442.186127 531.806030,442.055267 
	C514.796021,441.824738 503.164062,430.085938 502.987091,412.964966 
	C502.888977,403.472321 502.955780,393.978058 502.911194,384.484711 
	C502.872009,376.147888 502.849152,376.148010 494.412262,375.720642 
	C493.998291,375.479309 493.997772,375.071289 494.395447,375.054077 
	C496.528961,374.947479 498.264801,374.858124 500.000641,374.768738 
	C499.992798,374.523865 499.984985,374.278992 499.977173,374.034119 
	C498.004425,374.034119 496.031708,374.034302 494.058960,374.034088 
	C471.894592,374.031921 449.730194,374.025360 427.565826,374.028870 
	C410.234314,374.031616 392.902344,373.973633 375.571533,374.087891 
	C367.126923,374.143555 361.718811,378.545410 359.929443,386.737946 
	C359.296265,389.636963 359.115662,392.684387 359.113556,395.664337 
	C359.069153,458.824493 359.068359,521.984680 359.119629,585.144836 
	C359.121765,587.771912 359.710693,590.398376 360.012146,593.010742 
	C359.998077,592.996277 359.970215,592.967468 359.971741,593.384277 
	C360.575073,603.361328 365.331421,608.004517 374.853607,608.024109 
	C399.279938,608.074280 423.706482,608.058044 448.132751,607.995667 
	C450.428528,607.989807 452.722992,607.469727 455.018066,607.188354 
	C455.416748,607.220459 455.815430,607.252502 456.695831,607.541138 
	C458.462494,608.520752 459.747437,609.243835 461.032379,609.966858 
	C461.032379,609.966858 461.000000,610.000000 461.091919,610.376038 
	C463.361755,616.564026 461.042938,620.528687 455.998657,623.373657 
	C454.960632,623.302429 453.922577,623.231262 452.093750,623.103638 
	C450.500671,623.077576 449.698456,623.107971 448.896210,623.138367 
	C447.241791,623.143982 445.587372,623.149597 443.098267,623.107422 
	C441.139282,623.095764 440.014954,623.131958 438.890625,623.168213 
	C431.270050,623.164062 423.649475,623.159973 415.116730,623.095459 
	C412.101410,623.079712 409.998260,623.124451 407.895111,623.169128 
	C407.197021,623.173462 406.498901,623.177734 405.032013,623.124023 
	C403.140808,623.094849 402.018402,623.123779 400.895996,623.152710 
	C395.940094,623.159790 390.984161,623.166809 385.094452,623.110474 
	C374.429901,623.251465 364.842743,622.646973 355.965637,618.042358 
	C355.965637,618.042358 355.997559,618.002441 355.822876,617.726868 
	C350.027679,612.060669 346.507660,605.519165 344.949829,597.447998 
	C344.970245,528.268066 344.990051,459.548065 344.951355,390.828094 
	C344.950073,388.550415 344.355194,386.273071 344.081543,383.993530 
	C344.126038,383.991516 344.152039,383.906250 344.152039,383.906250 
M529.679199,425.382721 
	C539.767334,425.504791 549.855469,425.626862 560.270691,425.370941 
	C559.526123,423.568726 559.249878,421.280640 557.963440,420.040497 
	C546.835571,409.312653 535.551270,398.745941 524.223267,388.228516 
	C523.284668,387.357025 521.682983,387.199585 520.389404,386.710388 
	C519.975647,387.898712 519.217773,389.083038 519.204041,390.275970 
	C519.116211,397.922272 519.015320,405.576324 519.270142,413.216095 
	C519.468689,419.172638 522.931091,423.080811 529.679199,425.382721 
z"/>
<path fill="#00502B" opacity="1.000000" stroke="none" 
	d="
M553.793274,659.252625 
	C534.150818,660.523804 516.611389,655.064392 501.648956,642.257202 
	C483.505615,626.727295 473.904938,607.374146 474.102417,582.921753 
	C474.283478,560.498535 482.758179,542.073364 498.822174,527.361755 
	C510.534912,516.635071 524.822571,510.534607 541.034668,508.978149 
	C563.225891,506.847656 582.451477,513.370300 598.992065,527.809082 
	C611.650879,538.859314 619.508118,552.932312 622.730286,569.508911 
	C626.746399,590.170532 622.704346,609.444519 610.869202,626.500427 
	C598.767883,643.939758 582.082092,655.307922 560.654297,658.688171 
	C558.885254,658.967285 557.011108,658.580627 554.383240,658.438110 
	C551.661621,658.372986 549.742493,658.372986 547.823425,658.372986 
	C547.842102,658.666199 547.860779,658.959412 547.879395,659.252625 
	C549.850708,659.252625 551.821960,659.252625 553.793274,659.252625 
M491.064362,594.036621 
	C491.064362,594.036621 491.284973,594.211182 491.304565,595.001587 
	C493.355042,619.022278 520.810974,644.691589 544.836365,642.195312 
	C548.125854,641.853577 551.551819,642.658691 554.806519,642.187256 
	C559.939758,641.443542 564.981384,640.067749 570.034241,638.986694 
	C570.034241,638.986694 570.012329,639.017090 570.737793,638.869202 
	C589.376404,631.196838 601.364929,617.788330 605.995361,598.002930 
	C605.995361,598.002930 606.007751,597.991821 606.322937,597.318115 
	C606.276978,590.395203 606.355530,583.468201 606.133362,576.550964 
	C606.019592,573.009460 605.367676,569.485168 604.987122,565.977539 
	C604.987122,565.977539 605.016968,565.997375 604.864258,565.317688 
	C604.231873,563.858337 603.599487,562.398926 602.991028,560.966003 
	C602.991028,560.966003 603.019470,560.984192 602.845581,560.269531 
	C599.482178,550.657410 592.941895,543.418274 585.236755,537.157837 
	C576.906677,530.389648 567.359253,526.014465 556.609375,525.438660 
	C550.854553,525.130432 545.004028,526.946106 539.217041,526.825623 
	C529.999146,526.633789 522.511902,530.516479 515.148438,535.259644 
	C499.056824,545.624756 493.369720,561.908508 490.342499,579.477844 
	C489.544983,584.106262 490.625702,589.058289 491.064362,594.036621 
z"/>
<path fill="#00502B" opacity="1.000000" stroke="none" 
	d="
M834.242554,509.333496 
	C831.723328,508.860565 829.593506,508.512299 827.471436,508.122009 
	C819.776001,506.706696 818.427368,503.167725 822.399780,496.345551 
	C827.480225,487.620483 835.355164,483.181061 844.779846,481.199860 
	C853.688965,479.327057 862.574036,479.680389 871.378296,482.441986 
	C884.098267,486.431885 890.886780,495.802032 891.554199,508.201843 
	C892.577637,527.215271 891.822937,546.325012 891.792358,565.393921 
	C891.787292,568.530640 890.436218,569.774597 887.046509,569.239990 
	C883.956482,568.752625 880.682068,568.674500 877.591553,569.123047 
	C872.513489,569.859924 869.796387,568.435303 870.201416,562.922485 
	C870.236755,562.441284 870.103821,561.924622 869.943359,561.460938 
	C869.848450,561.186707 869.545837,560.984314 869.140076,560.529053 
	C868.503235,560.918518 867.728271,561.220581 867.178284,561.754456 
	C858.048340,570.617676 846.875977,572.401917 835.223267,569.534485 
	C826.253296,567.327209 816.197083,559.838196 817.649109,546.944641 
	C817.997559,543.850098 817.227051,540.589417 817.815674,537.569702 
	C819.465881,529.103760 825.684509,524.354370 832.903931,520.891235 
	C842.215637,516.424500 852.379761,516.596741 862.387329,516.276428 
	C869.959595,516.033936 871.228943,514.466614 869.035950,507.293091 
	C866.225830,498.100616 853.491333,494.420746 845.945496,500.735626 
	C844.019287,502.347565 842.731750,504.738251 840.768066,506.285431 
	C838.995850,507.681793 836.700317,508.413849 834.242554,509.333496 
M870.362244,542.681519 
	C870.391663,541.208374 870.341492,539.728516 870.464783,538.263306 
	C870.891968,533.184875 868.190063,531.819458 863.621826,531.942505 
	C858.827698,532.071838 854.021057,531.692017 849.218872,531.580994 
	C845.300781,531.490479 837.818542,537.702148 837.266907,541.448364 
	C836.360229,547.605591 839.513977,553.030457 845.613403,554.292175 
	C854.932983,556.220093 864.933533,554.927124 870.362244,542.681519 
M852.135193,496.860748 
	C852.093872,496.672607 852.052612,496.484436 852.011353,496.296295 
	C851.980408,496.485565 851.949463,496.674866 852.135193,496.860748 
z"/>
<path fill="#00502B" opacity="1.000000" stroke="none" 
	d="
M1038.864014,508.708252 
	C1034.766968,499.522858 1030.757812,497.068695 1021.240906,497.867737 
	C1016.585388,498.258636 1013.423462,500.251831 1011.918701,505.271149 
	C1011.336975,507.211517 1007.945251,509.470764 1005.777222,509.530334 
	C1001.378723,509.651184 996.806702,508.782501 992.608459,507.402222 
	C991.452087,507.022064 990.472168,503.175110 990.931946,501.289764 
	C993.695496,489.958405 1001.971497,484.413757 1012.683838,481.786652 
	C1023.843628,479.049835 1034.821045,479.316162 1045.289551,484.482269 
	C1054.920044,489.234863 1060.460083,497.394318 1060.727661,507.862518 
	C1061.198120,526.272400 1060.572754,544.709717 1060.452271,563.135803 
	C1060.429443,566.636108 1058.811157,568.397400 1055.320435,568.434570 
	C1053.155396,568.457642 1050.989746,568.493591 1048.824829,568.472046 
	C1040.202637,568.386108 1040.202759,568.378601 1038.767700,559.595520 
	C1037.447876,560.650391 1036.299683,561.429871 1035.313232,562.377625 
	C1023.134216,574.078674 1002.619446,572.676331 993.125061,562.961426 
	C981.273193,550.834045 984.518372,529.925232 999.536560,522.063843 
	C1009.813110,516.684509 1020.962524,516.593750 1032.086182,516.227539 
	C1038.874634,516.004028 1039.072266,515.878540 1038.864014,508.708252 
M1038.284546,533.200928 
	C1036.568481,532.791687 1034.845581,532.009705 1033.137695,532.041443 
	C1027.512451,532.145874 1021.878540,532.384216 1016.274597,532.874817 
	C1010.351318,533.393372 1006.932861,536.625549 1006.498535,541.601501 
	C1005.908569,548.360474 1008.834351,552.856384 1014.872314,554.468628 
	C1029.662354,558.417908 1040.637207,548.961426 1038.284546,533.200928 
M1030.371338,517.013916 
	C1029.957642,517.082642 1029.543823,517.151428 1029.130127,517.220154 
	C1029.187256,517.390747 1029.244385,517.561340 1029.301514,517.731934 
	C1029.741943,517.533020 1030.182251,517.334106 1030.371338,517.013916 
z"/>
<path fill="#44494D" opacity="1.000000" stroke="none" 
	d="
M1197.929810,520.974792 
	C1183.864014,520.974792 1169.798340,520.974792 1155.226562,520.974792 
	C1155.044189,523.263245 1154.766357,525.183777 1154.758423,527.105347 
	C1154.709595,538.931519 1154.629272,550.758972 1154.760620,562.583679 
	C1154.810303,567.056396 1152.968994,569.009155 1148.519165,568.811157 
	C1145.194214,568.663086 1141.855957,568.704712 1138.526855,568.786377 
	C1134.701782,568.880066 1133.172852,567.025574 1133.177734,563.299438 
	C1133.225464,527.487488 1133.237671,491.675415 1133.196167,455.863434 
	C1133.192017,452.316315 1134.312378,450.974640 1138.181152,451.021484 
	C1158.166626,451.263489 1178.157349,451.307678 1198.143188,451.115814 
	C1202.427979,451.074707 1203.658203,452.594849 1203.673340,456.572510 
	C1203.734497,472.599335 1204.394043,470.680389 1189.867554,470.728149 
	C1179.873657,470.760986 1169.877930,470.842926 1159.886475,470.681732 
	C1155.969849,470.618561 1154.567017,472.183838 1154.671509,476.003448 
	C1154.848999,482.494659 1154.959717,489.006622 1154.632935,495.486389 
	C1154.390137,500.299683 1156.564941,501.426941 1160.860474,501.362885 
	C1172.490723,501.189423 1184.125244,501.303406 1195.758667,501.835266 
	C1183.307251,501.835266 1170.855957,501.835266 1158.404541,501.835266 
	C1158.379395,502.208557 1158.354248,502.581879 1158.329102,502.955170 
	C1160.463623,502.955170 1162.598022,502.954742 1164.732544,502.955231 
	C1174.393433,502.957428 1184.055542,503.047302 1193.714478,502.912567 
	C1196.897461,502.868164 1198.284912,503.915985 1198.118408,507.206390 
	C1197.899658,511.525818 1197.954102,515.859070 1197.905762,520.585510 
	C1197.920410,520.984619 1197.929810,520.974792 1197.929810,520.974792 
M1153.180908,526.477783 
	C1153.180908,539.383057 1153.180908,552.288391 1153.180908,565.193665 
	C1153.422974,565.188416 1153.664917,565.183167 1153.906982,565.177917 
	C1153.906982,551.410706 1153.906982,537.643494 1153.906982,523.876282 
	C1153.722900,523.873413 1153.538818,523.870483 1153.354736,523.867554 
	C1153.298096,524.506714 1153.241333,525.145935 1153.180908,526.477783 
M1179.499756,470.154480 
	C1185.624634,470.154480 1191.749512,470.154480 1197.874390,470.154480 
	C1197.865967,469.960327 1197.857544,469.766174 1197.849121,469.572021 
	C1184.603394,469.572021 1171.357666,469.572021 1158.112061,469.572021 
	C1158.113403,469.766510 1158.114746,469.960999 1158.116211,470.155487 
	C1164.910767,470.155487 1171.705444,470.155487 1179.499756,470.154480 
M1153.203613,474.542389 
	C1153.203613,482.484375 1153.203613,490.426392 1153.203613,498.368378 
	C1154.288574,491.944458 1154.355225,485.509796 1154.243408,479.078186 
	C1154.214233,477.401154 1153.628296,475.733826 1153.203613,474.542389 
M1202.340332,466.180634 
	C1202.574585,465.778992 1202.808838,465.377350 1203.043213,464.975739 
	C1202.803467,464.934875 1202.563599,464.894043 1202.323853,464.853180 
	C1202.291870,465.180023 1202.259888,465.506897 1202.340332,466.180634 
M1202.221069,459.166351 
	C1202.336792,459.563477 1202.452393,459.960632 1202.567993,460.357758 
	C1202.754028,460.179596 1203.127563,459.897339 1203.095703,459.840240 
	C1202.891479,459.472076 1202.598511,459.153229 1202.221069,459.166351 
z"/>
<path fill="#004C28" opacity="1.000000" stroke="none" 
	d="
M761.965027,569.047913 
	C760.759155,567.339966 759.114380,565.794373 758.413696,563.899658 
	C749.010620,538.472900 739.729431,513.001038 730.457520,487.525970 
	C729.858154,485.879272 729.581665,484.115051 728.902344,481.393311 
	C736.224976,481.393311 742.785461,481.126587 749.292847,481.596191 
	C750.769470,481.702728 752.723694,484.132660 753.334412,485.884827 
	C758.369446,500.329681 763.077942,514.887878 768.027283,529.363220 
	C769.497437,533.662964 771.418762,537.808533 773.558960,543.071411 
	C776.263672,535.520996 778.821045,528.866638 781.033813,522.099670 
	C785.153687,509.500183 789.007690,496.813446 793.186890,484.234344 
	C793.560242,483.110443 795.471008,481.834015 796.719604,481.777649 
	C802.493469,481.516846 808.285706,481.662476 815.058533,481.662476 
	C814.748474,484.299622 814.911377,486.955933 814.089966,489.261627 
	C807.506897,507.741119 800.716248,526.146484 794.037659,544.592102 
	C791.660522,551.157532 789.475281,557.792664 787.072144,564.348267 
	C786.472900,565.983032 785.367676,567.432251 783.852966,568.847412 
	C776.128967,568.834717 769.046997,568.941284 761.965027,569.047913 
z"/>
<path fill="#00502B" opacity="1.000000" stroke="none" 
	d="
M930.157471,522.897949 
	C930.216064,538.249390 930.216064,553.297485 930.216064,569.116516 
	C923.511047,569.116516 917.809692,569.282654 912.123657,569.059814 
	C908.127930,568.903259 908.215576,565.705750 908.215454,562.795105 
	C908.214966,547.650146 908.217285,532.505249 908.214661,517.360291 
	C908.210938,495.891144 908.197632,474.421967 908.201599,452.952820 
	C908.202759,446.767517 908.861328,446.117920 915.127380,446.080475 
	C919.780457,446.052643 924.433838,446.074951 930.098877,446.074951 
	C930.098877,471.617279 930.098877,497.105927 930.157471,522.897949 
M909.842712,460.527283 
	C909.842712,457.657104 909.842712,454.786957 909.842712,451.916779 
	C909.652039,451.927032 909.461426,451.937286 909.270752,451.947571 
	C909.270752,457.936707 909.270752,463.925812 909.270752,469.914948 
	C909.460815,469.909882 909.650818,469.904785 909.840881,469.899689 
	C909.840881,467.090057 909.840881,464.280457 909.842712,460.527283 
M909.823181,498.803192 
	C909.823181,494.522308 909.823181,490.241394 909.823181,485.960510 
	C909.056396,490.540131 909.054321,495.098602 909.082153,499.656952 
	C909.082458,499.707367 909.471619,499.778687 909.680237,499.782257 
	C909.715820,499.782837 909.756470,499.488922 909.823181,498.803192 
M909.772400,548.835266 
	C909.736938,548.688660 909.734802,548.519348 909.655579,548.402466 
	C909.590332,548.306335 909.433533,548.272339 909.317322,548.210815 
	C909.321960,548.732483 909.326660,549.254211 909.331299,549.775879 
	C909.478455,549.560486 909.625549,549.345093 909.772400,548.835266 
M909.459106,476.968506 
	C909.402771,477.320923 909.346436,477.673340 909.290100,478.025818 
	C909.408813,477.997742 909.625732,477.980682 909.630310,477.939758 
	C909.661133,477.664856 909.646790,477.384888 909.459106,476.968506 
M909.446838,532.950073 
	C909.321655,533.185608 909.196472,533.421204 909.071228,533.656738 
	C909.261414,533.753418 909.451538,533.850159 909.641663,533.946899 
	C909.641846,533.661133 909.641968,533.375305 909.446838,532.950073 
M909.393127,517.315491 
	C909.440613,517.086121 909.488098,516.856812 909.535583,516.627441 
	C909.432434,516.819946 909.329346,517.012451 909.393127,517.315491 
M909.141174,524.951904 
	C909.306885,525.041931 909.472595,525.131897 909.638306,525.221924 
	C909.500671,525.071533 909.363037,524.921143 909.141174,524.951904 
M909.289124,508.654083 
	C909.354797,508.533417 909.420532,508.412750 909.486267,508.292145 
	C909.403442,508.360596 909.320618,508.429047 909.289124,508.654083 
M909.598511,564.327881 
	C909.528320,564.458252 909.458069,564.588562 909.387817,564.718933 
	C909.474976,564.645264 909.562134,564.571594 909.598511,564.327881 
z"/>
<path fill="#44494D" opacity="1.000000" stroke="none" 
	d="
M1100.951660,568.770386 
	C1089.157959,568.685120 1089.694824,570.124084 1089.703125,557.997742 
	C1089.725952,524.845154 1089.695557,491.692596 1089.711548,458.540039 
	C1089.712646,456.243530 1089.921631,453.947174 1090.054443,451.231537 
	C1095.730713,451.231537 1101.014771,451.230286 1106.298828,451.231964 
	C1109.898560,451.233124 1110.180786,453.905548 1110.174683,456.426636 
	C1110.090332,491.060333 1109.932007,525.693848 1109.809570,560.327454 
	C1109.780273,568.614868 1109.693481,568.732605 1100.951660,568.770386 
z"/>
<path fill="#004E29" opacity="1.000000" stroke="none" 
	d="
M396.131775,497.816895 
	C392.146637,496.723938 389.388123,494.498718 388.965485,490.093903 
	C388.438965,484.605408 391.403656,481.498047 397.042511,481.617981 
	C398.193726,481.642487 399.346619,481.587799 401.377319,481.519318 
	C416.371155,481.449066 430.486450,481.429108 444.601715,481.409149 
	C464.540436,481.468597 484.479401,481.601898 504.417603,481.525085 
	C508.392151,481.509796 512.314331,480.983002 513.660767,485.923737 
	C515.239441,491.716827 513.360901,495.225037 506.842560,497.694153 
	C504.123810,497.421997 502.147247,497.062988 500.170258,497.060883 
	C467.790833,497.026520 435.411346,497.021393 403.031982,497.071289 
	C400.731537,497.074829 398.431824,497.557190 396.131775,497.816895 
z"/>
<path fill="#00512C" opacity="1.000000" stroke="none" 
	d="
M952.087585,481.895111 
	C956.893738,481.896576 961.699951,481.906860 966.506104,481.896637 
	C970.116150,481.888947 972.093506,483.471191 972.089844,487.278992 
	C972.065796,512.694824 972.048889,538.110718 972.103699,563.526428 
	C972.111328,567.054382 970.117981,568.239563 967.127808,568.358337 
	C962.482483,568.542908 957.830200,568.554199 952.672607,568.541992 
	C952.164246,568.444946 952.004028,568.166748 952.223267,567.800537 
	C952.561462,566.615295 952.783508,565.796387 952.784424,564.977173 
	C952.812927,538.572693 952.831726,512.168152 952.795227,485.763733 
	C952.793457,484.487427 952.277344,483.211853 952.033081,481.948364 
	C952.065369,481.960754 952.087585,481.895111 952.087585,481.895111 
z"/>
<path fill="#00512C" opacity="1.000000" stroke="none" 
	d="
M394.073883,539.036743 
	C388.643066,537.019897 388.681427,532.005310 390.134125,528.362549 
	C391.098236,525.945007 395.501221,523.561035 398.426575,523.483215 
	C415.870148,523.019348 433.333405,523.088379 450.786438,523.290161 
	C457.260498,523.364929 460.683380,527.733032 459.604889,533.855530 
	C459.064240,536.924561 457.727020,539.461426 453.796509,539.425964 
	C434.183258,539.248901 414.569031,539.176270 394.499939,539.038940 
	C394.044678,539.011047 394.073883,539.036743 394.073883,539.036743 
z"/>
<path fill="#012C0E" opacity="1.000000" stroke="none" 
	d="
M695.057861,450.763672 
	C696.258362,452.632599 697.850525,454.357666 698.598145,456.392944 
	C705.422913,474.972961 712.127319,493.597443 718.813049,512.228210 
	C724.316162,527.563599 729.749634,542.923950 735.205505,558.276184 
	C736.255371,561.230347 737.266418,564.198364 738.711304,568.357117 
	C733.541748,568.570129 729.040894,568.901672 724.539246,568.912964 
	C712.215210,568.943909 714.172241,569.571594 710.338196,558.797913 
	C708.999817,555.036804 707.434570,551.339966 706.363098,547.504761 
	C705.147400,543.153381 702.391479,541.958496 698.173950,542.044250 
	C688.688660,542.237122 679.196655,542.082581 669.707520,542.106506 
	C662.015747,542.125977 661.362549,542.714233 659.300232,549.944214 
	C657.939514,554.714294 656.276184,559.397583 654.889099,564.160767 
	C653.960327,567.350098 651.899658,568.826721 648.689026,568.855408 
	C644.028503,568.897095 639.365173,569.004944 634.707703,568.891602 
	C629.767212,568.771362 629.115051,567.886719 630.783447,563.092102 
	C637.666077,543.312561 644.675049,523.577026 651.596985,503.811127 
	C656.656189,489.364380 661.569824,474.865967 666.739685,460.459259 
	C667.888977,457.256531 669.841431,454.342072 672.126831,451.314758 
	C680.238953,451.144287 687.648376,450.953979 695.057861,450.763672 
M636.708496,552.232300 
	C636.538208,552.702332 636.366516,553.171875 636.197693,553.642456 
	C631.088013,567.882263 629.832031,567.034058 646.197693,566.995117 
	C650.174316,566.985657 652.285156,565.229065 653.398010,561.513916 
	C654.974854,556.249451 657.019836,551.123413 658.543274,545.845398 
	C659.748047,541.671509 662.174377,539.854553 666.513245,539.928040 
	C674.843018,540.069092 683.177673,539.891541 691.509216,539.967407 
	C708.456177,540.121765 705.078613,537.955078 710.726196,553.730957 
	C716.181274,568.969177 713.057373,566.858765 729.843201,566.943481 
	C735.286499,566.970947 735.827942,566.092224 734.040039,561.100159 
	C722.917297,530.044067 711.942261,498.933563 700.576904,467.966461 
	C694.019775,450.100494 698.191162,453.554199 679.080566,452.877441 
	C673.152222,452.667542 670.609497,455.005402 668.756470,460.427704 
	C658.358826,490.853058 647.604431,521.156433 636.708496,552.232300 
z"/>
<path fill="#004925" opacity="1.000000" stroke="none" 
	d="
M949.138489,457.325317 
	C949.961914,449.326813 953.444763,445.981323 960.924255,445.641174 
	C969.082153,445.270233 974.179443,449.077545 975.619019,456.617188 
	C976.859131,463.112122 973.498657,469.183441 967.460938,471.356567 
	C960.628906,473.815582 953.382446,471.706787 950.566040,465.883667 
	C949.406128,463.485596 949.562866,460.450775 949.138489,457.325317 
z"/>
<path fill="#012C0E" opacity="1.000000" stroke="none" 
	d="
M360.026245,593.025146 
	C359.710693,590.398376 359.121765,587.771912 359.119629,585.144836 
	C359.068359,521.984680 359.069153,458.824493 359.113556,395.664337 
	C359.115662,392.684387 359.296265,389.636963 359.929443,386.737946 
	C361.718811,378.545410 367.126923,374.143555 375.571533,374.087891 
	C392.902344,373.973633 410.234314,374.031616 427.565826,374.028870 
	C449.730194,374.025360 471.894592,374.031921 494.058960,374.034088 
	C496.031708,374.034302 498.004425,374.034119 499.977173,374.034119 
	C499.984985,374.278992 499.992798,374.523865 500.000641,374.768738 
	C498.264801,374.858124 496.528961,374.947479 493.927399,375.030823 
	C455.125336,375.008942 417.188934,374.970520 379.252716,375.029999 
	C376.817413,375.033813 374.383331,375.794586 371.948669,376.203217 
	C367.006927,379.115509 362.678253,382.563660 360.909912,389.215271 
	C360.390839,391.734070 359.959808,393.539795 359.959717,395.345490 
	C359.957031,461.238708 359.994385,527.131958 360.026245,593.025146 
z"/>
<path fill="#012C0E" opacity="1.000000" stroke="none" 
	d="
M344.940063,597.907898 
	C346.507660,605.519165 350.027679,612.060669 355.807983,617.745239 
	C353.719727,616.464966 350.978302,615.290344 349.317719,613.240295 
	C344.645782,607.472534 342.958801,600.577698 342.960846,593.197266 
	C342.979370,525.981689 342.962860,458.766083 343.003632,391.550507 
	C343.005035,389.253265 343.501495,386.956390 343.959625,384.282776 
	C344.152039,383.906250 344.126038,383.991516 344.075439,384.461884 
	C344.016418,453.465302 343.998291,521.998352 344.039337,590.531372 
	C344.040802,592.990417 344.626587,595.449036 344.940063,597.907898 
z"/>
<path fill="#012106" opacity="1.000000" stroke="none" 
	d="
M479.402496,440.870331 
	C484.290375,445.277069 483.272858,450.711945 476.121765,453.967590 
	C448.433990,454.022552 421.583710,454.030670 394.733429,454.038818 
	C390.550140,452.927887 388.184570,450.138428 388.410217,445.885956 
	C388.626709,441.806549 390.735992,438.798309 395.992249,438.026031 
	C422.578644,437.993286 448.324371,437.992096 474.070068,437.990906 
	C475.676727,438.679596 477.283417,439.368256 478.612305,440.326233 
	C474.053436,440.078735 469.775482,439.147552 465.490784,439.115417 
	C444.825500,438.960358 424.158386,439.041626 403.491943,439.057312 
	C401.327332,439.058960 399.141449,439.012146 397.002869,439.283234 
	C393.030426,439.786835 390.466797,442.070801 390.427612,446.161346 
	C390.389618,450.131989 393.068634,452.099609 396.741150,452.680450 
	C398.538971,452.964813 400.395416,452.943359 402.225616,452.947754 
	C413.558777,452.974915 424.891998,452.976410 436.225220,452.974030 
	C447.891754,452.971588 459.558960,453.027985 471.224548,452.918030 
	C478.566833,452.848816 480.669403,450.194305 479.601837,442.849792 
	C479.506531,442.194183 479.467621,441.530334 479.402496,440.870331 
z"/>
<path fill="#00502B" opacity="1.000000" stroke="none" 
	d="
M360.012146,593.010742 
	C359.994385,527.131958 359.957031,461.238708 359.959717,395.345490 
	C359.959808,393.539795 360.390839,391.734070 360.759033,389.556580 
	C360.971527,407.482025 361.014160,425.779419 361.128754,444.076355 
	C361.254333,464.129700 361.555756,484.182526 361.579071,504.235779 
	C361.603149,524.926392 361.383789,545.617310 361.272980,566.308044 
	C361.226807,574.935120 361.185974,583.562195 360.881561,592.616821 
	C360.403656,593.018738 360.186920,592.993103 359.970215,592.967468 
	C359.970215,592.967468 359.998077,592.996277 360.012146,593.010742 
z"/>
<path fill="#012C0E" opacity="1.000000" stroke="none" 
	d="
M359.971741,593.384277 
	C360.186920,592.993103 360.403656,593.018738 360.947754,593.074707 
	C364.274597,604.373779 366.331879,605.933960 378.290497,605.932129 
	C401.181763,605.928650 424.073120,605.889282 446.964233,605.939026 
	C449.415375,605.944397 451.865417,606.441528 454.667023,606.949463 
	C452.722992,607.469727 450.428528,607.989807 448.132751,607.995667 
	C423.706482,608.058044 399.279938,608.074280 374.853607,608.024109 
	C365.331421,608.004517 360.575073,603.361328 359.971741,593.384277 
z"/>
<path fill="#00512C" opacity="1.000000" stroke="none" 
	d="
M372.419739,376.147278 
	C374.383331,375.794586 376.817413,375.033813 379.252716,375.029999 
	C417.188934,374.970520 455.125336,375.008942 493.529724,375.048035 
	C493.997772,375.071289 493.998291,375.479309 493.998291,375.683289 
	C481.515930,375.988251 469.033691,376.166565 456.551300,376.174377 
	C428.664520,376.191864 400.777649,376.124298 372.419739,376.147278 
z"/>
<path fill="#00512C" opacity="1.000000" stroke="none" 
	d="
M396.587555,497.866913 
	C398.431824,497.557190 400.731537,497.074829 403.031982,497.071289 
	C435.411346,497.021393 467.790833,497.026520 500.170258,497.060883 
	C502.147247,497.062988 504.123810,497.421997 506.484558,497.723206 
	C470.260162,497.859985 433.651733,497.888458 396.587555,497.866913 
z"/>
<path fill="#012C0E" opacity="1.000000" stroke="none" 
	d="
M952.004028,568.166748 
	C952.004028,568.166748 952.164246,568.444946 952.224243,568.593506 
	C951.846191,566.835754 951.032898,564.930603 951.026855,563.023010 
	C950.947205,537.871155 950.967773,512.718994 951.017334,487.566986 
	C951.020569,485.929108 951.463501,484.292053 951.894714,482.274872 
	C952.087585,481.895111 952.065369,481.960754 952.061035,482.420715 
	C952.039124,511.309387 952.021545,539.738037 952.004028,568.166748 
z"/>
<path fill="#012C0E" opacity="1.000000" stroke="none" 
	d="
M395.129822,454.225220 
	C421.583710,454.030670 448.433990,454.022552 475.780579,454.027130 
	C474.328979,454.381104 472.381927,455.013855 470.433105,455.019287 
	C447.108093,455.084595 423.782806,455.069702 400.457703,455.025757 
	C398.813477,455.022644 397.170013,454.625488 395.129822,454.225220 
z"/>
<path fill="#012C0E" opacity="1.000000" stroke="none" 
	d="
M473.694824,437.800415 
	C448.324371,437.992096 422.578644,437.993286 396.351288,437.988159 
	C397.809906,437.638489 399.749237,437.002686 401.690613,436.996460 
	C423.931671,436.925140 446.173126,436.935730 468.414337,436.977051 
	C470.049835,436.980072 471.684540,437.389496 473.694824,437.800415 
z"/>
<path fill="#012C0E" opacity="1.000000" stroke="none" 
	d="
M356.086426,618.367310 
	C364.842743,622.646973 374.429901,623.251465 384.634827,623.105957 
	C377.546692,623.144287 369.961334,623.443970 362.436646,622.901611 
	C360.270264,622.745483 358.278839,620.162598 356.086426,618.367310 
z"/>
<path fill="#012C0E" opacity="1.000000" stroke="none" 
	d="
M444.299194,481.155792 
	C430.486450,481.429108 416.371155,481.449066 401.831970,481.445038 
	C402.611725,480.964630 403.813019,480.119385 405.019531,480.111786 
	C417.237549,480.034943 429.456512,480.080688 441.674866,480.150024 
	C442.450226,480.154419 443.222809,480.640472 444.299194,481.155792 
z"/>
<path fill="#012C0E" opacity="1.000000" stroke="none" 
	d="
M456.312347,623.484253 
	C461.042938,620.528687 463.361755,616.564026 461.108337,610.360046 
	C465.134521,611.891479 464.287018,615.425110 463.467499,618.573120 
	C462.617096,621.839783 460.553101,624.170105 456.312347,623.484253 
z"/>
<path fill="#00512C" opacity="1.000000" stroke="none" 
	d="
M762.285889,569.120605 
	C769.046997,568.941284 776.128967,568.834717 783.601929,568.852478 
	C776.864258,569.049011 769.735535,569.121155 762.285889,569.120605 
z"/>
<path fill="#00502B" opacity="1.000000" stroke="none" 
	d="
M694.586853,450.822205 
	C687.648376,450.953979 680.238953,451.144287 672.449097,451.192444 
	C679.417725,450.993805 686.766785,450.937256 694.586853,450.822205 
z"/>
<path fill="#012C0E" opacity="1.000000" stroke="none" 
	d="
M460.896637,609.656128 
	C459.747437,609.243835 458.462494,608.520752 456.996033,607.537842 
	C458.129974,607.967102 459.445435,608.656250 460.896637,609.656128 
z"/>
<path fill="#012C0E" opacity="1.000000" stroke="none" 
	d="
M408.245911,623.281128 
	C409.998260,623.124451 412.101410,623.079712 414.654724,623.088135 
	C412.935516,623.225159 410.766113,623.309143 408.245911,623.281128 
z"/>
<path fill="#012C0E" opacity="1.000000" stroke="none" 
	d="
M401.189148,623.247314 
	C402.018402,623.123779 403.140808,623.094849 404.683044,623.114136 
	C403.896057,623.222107 402.689178,623.281982 401.189148,623.247314 
z"/>
<path fill="#012C0E" opacity="1.000000" stroke="none" 
	d="
M439.184662,623.261841 
	C440.014954,623.131958 441.139282,623.095764 442.684875,623.103271 
	C441.896973,623.216431 440.687836,623.285950 439.184662,623.261841 
z"/>
<path fill="#012C0E" opacity="1.000000" stroke="none" 
	d="
M449.157532,623.220459 
	C449.698456,623.107971 450.500671,623.077576 451.703918,623.085266 
	C451.209564,623.183044 450.314178,623.242737 449.157532,623.220459 
z"/>
<path fill="#00512C" opacity="1.000000" stroke="none" 
	d="
M394.034424,538.995667 
	C394.024139,538.980286 393.798096,539.205566 393.798096,539.205566 
	C393.798096,539.205566 393.941101,539.055481 394.007507,539.046143 
	C394.073883,539.036743 394.044678,539.011047 394.034424,538.995667 
z"/>
<path fill="#44494D" opacity="1.000000" stroke="none" 
	d="
M1197.913574,520.984253 
	C1197.906860,520.983826 1197.988647,521.197449 1197.988647,521.197449 
	C1197.988647,521.197449 1198.066040,520.981201 1197.997925,520.978027 
	C1197.929810,520.974792 1197.920410,520.984619 1197.913574,520.984253 
z"/>
<path fill="#000702" opacity="1.000000" stroke="none" 
	d="
M528.940186,424.986694 
	C522.931091,423.080811 519.468689,419.172638 519.270142,413.216095 
	C519.015320,405.576324 519.116211,397.922272 519.204041,390.275970 
	C519.217773,389.083038 519.975647,387.898712 520.389404,386.710388 
	C521.682983,387.199585 523.284668,387.357025 524.223267,388.228516 
	C535.551270,398.745941 546.835571,409.312653 557.963440,420.040497 
	C559.249878,421.280640 559.526123,423.568726 559.719910,425.443726 
	C549.474243,425.339447 539.779419,425.162384 529.939941,424.959534 
	C529.502930,424.887543 529.216431,424.911530 528.960022,425.009766 
	C528.984314,425.013855 528.940186,424.986694 528.940186,424.986694 
z"/>
<path fill="#012106" opacity="1.000000" stroke="none" 
	d="
M344.949829,597.447998 
	C344.626587,595.449036 344.040802,592.990417 344.039337,590.531372 
	C343.998291,521.998352 344.016418,453.465302 344.030945,384.463928 
	C344.355194,386.273071 344.950073,388.550415 344.951355,390.828094 
	C344.990051,459.548065 344.970245,528.268066 344.949829,597.447998 
z"/>
<path fill="#012106" opacity="1.000000" stroke="none" 
	d="
M530.084534,424.985352 
	C539.779419,425.162384 549.474243,425.339447 559.556396,425.632721 
	C549.855469,425.626862 539.767334,425.504791 529.309692,425.184692 
	C528.940186,424.986694 528.984314,425.013855 529.247070,424.993683 
	C529.701416,424.977448 529.893005,424.981415 530.084534,424.985352 
z"/>
<path fill="#000301" opacity="1.000000" stroke="none" 
	d="
M570.061829,638.959534 
	C564.981384,640.067749 559.939758,641.443542 554.806519,642.187256 
	C551.551819,642.658691 548.125854,641.853577 544.836365,642.195312 
	C520.810974,644.691589 493.355042,619.022278 491.428833,594.419617 
	C491.991119,593.059937 492.429169,592.282227 492.867249,591.504517 
	C492.691315,591.399902 492.515411,591.295288 492.339478,591.190674 
	C491.840942,592.081055 491.342438,592.971375 490.843933,593.861755 
	C490.625702,589.058289 489.544983,584.106262 490.342499,579.477844 
	C493.369720,561.908508 499.056824,545.624756 515.148438,535.259644 
	C522.511902,530.516479 529.999146,526.633789 539.217041,526.825623 
	C545.004028,526.946106 550.854553,525.130432 556.609375,525.438660 
	C567.359253,526.014465 576.906677,530.389648 585.236755,537.157837 
	C592.941895,543.418274 599.482178,550.657410 602.882690,560.666870 
	C602.919800,561.064148 602.883484,561.241333 602.883484,561.241333 
	C602.883484,561.241333 602.967163,560.939514 602.967163,560.939514 
	C603.599487,562.398926 604.231873,563.858337 604.834595,565.744080 
	C604.792053,566.386719 604.779236,566.602966 604.766357,566.819214 
	C604.830566,566.530518 604.894775,566.241821 604.959045,565.953125 
	C605.367676,569.485168 606.019592,573.009460 606.133362,576.550964 
	C606.355530,583.468201 606.276978,590.395203 606.153809,597.545532 
	C605.851624,597.791687 605.718506,597.810425 605.585388,597.829163 
	C605.715637,597.891602 605.845886,597.954041 605.976135,598.016418 
	C601.364929,617.788330 589.376404,631.196838 570.333374,638.867615 
	C569.928955,638.866028 569.647827,638.825684 569.647827,638.825684 
	C569.647827,638.825684 570.061829,638.959534 570.061829,638.959534 
M582.110474,557.162231 
	C582.110474,557.162231 581.838135,556.862610 581.294678,556.819397 
	C578.106506,558.465820 574.393738,559.537292 571.834045,561.872620 
	C565.573425,567.584473 559.755676,573.795288 553.923584,579.960327 
	C543.808044,590.653442 539.672241,592.590759 528.165222,580.188782 
	C524.553955,576.296631 518.232666,575.933960 515.183594,578.968384 
	C512.340881,581.797424 512.519104,590.553223 515.565063,593.628052 
	C521.065063,599.180115 526.600647,604.697388 532.160339,610.189758 
	C538.927490,616.874817 543.142639,616.867737 549.938721,610.127075 
	C561.497192,598.662903 573.030090,587.172852 584.555237,575.675171 
	C590.911438,569.334167 590.134155,562.976868 582.110474,557.162231 
z"/>
<path fill="#000000" opacity="1.000000" stroke="none" 
	d="
M553.927246,659.084106 
	C551.821960,659.252625 549.850708,659.252625 547.879395,659.252625 
	C547.860779,658.959412 547.842102,658.666199 547.823425,658.372986 
	C549.742493,658.372986 551.661621,658.372986 553.954590,658.475464 
	C554.328552,658.577942 554.061279,658.915588 553.927246,659.084106 
z"/>
<path fill="#000702" opacity="1.000000" stroke="none" 
	d="
M870.219971,543.039673 
	C864.933533,554.927124 854.932983,556.220093 845.613403,554.292175 
	C839.513977,553.030457 836.360229,547.605591 837.266907,541.448364 
	C837.818542,537.702148 845.300781,531.490479 849.218872,531.580994 
	C854.021057,531.692017 858.827698,532.071838 863.621826,531.942505 
	C868.190063,531.819458 870.891968,533.184875 870.464783,538.263306 
	C870.341492,539.728516 870.391663,541.208374 870.219971,543.039673 
M868.519287,537.464661 
	C868.519287,537.464661 868.545715,537.520264 868.519287,537.464661 
z"/>
<path fill="#000000" opacity="1.000000" stroke="none" 
	d="
M852.026855,496.862427 
	C851.949463,496.674866 851.980408,496.485565 852.011353,496.296295 
	C852.052612,496.484436 852.093872,496.672607 852.026855,496.862427 
z"/>
<path fill="#000702" opacity="1.000000" stroke="none" 
	d="
M1038.486084,533.574463 
	C1040.637207,548.961426 1029.662354,558.417908 1014.872314,554.468628 
	C1008.834351,552.856384 1005.908569,548.360474 1006.498535,541.601501 
	C1006.932861,536.625549 1010.351318,533.393372 1016.274597,532.874817 
	C1021.878540,532.384216 1027.512451,532.145874 1033.137695,532.041443 
	C1034.845581,532.009705 1036.568481,532.791687 1038.486084,533.574463 
z"/>
<path fill="#000000" opacity="1.000000" stroke="none" 
	d="
M1030.497070,517.074585 
	C1030.182251,517.334106 1029.741943,517.533020 1029.301514,517.731934 
	C1029.244385,517.561340 1029.187256,517.390747 1029.130127,517.220154 
	C1029.543823,517.151428 1029.957642,517.082642 1030.497070,517.074585 
z"/>
<path fill="#012106" opacity="1.000000" stroke="none" 
	d="
M1153.182861,526.131470 
	C1153.241333,525.145935 1153.298096,524.506714 1153.354736,523.867554 
	C1153.538818,523.870483 1153.722900,523.873413 1153.906982,523.876282 
	C1153.906982,537.643494 1153.906982,551.410706 1153.906982,565.177917 
	C1153.664917,565.183167 1153.422974,565.188416 1153.180908,565.193665 
	C1153.180908,552.288391 1153.180908,539.383057 1153.182861,526.131470 
z"/>
<path fill="#012C0E" opacity="1.000000" stroke="none" 
	d="
M1178.999878,470.154968 
	C1171.705444,470.155487 1164.910767,470.155487 1158.116211,470.155487 
	C1158.114746,469.960999 1158.113403,469.766510 1158.112061,469.572021 
	C1171.357666,469.572021 1184.603394,469.572021 1197.849121,469.572021 
	C1197.857544,469.766174 1197.865967,469.960327 1197.874390,470.154480 
	C1191.749512,470.154480 1185.624634,470.154480 1178.999878,470.154968 
z"/>
<path fill="#012106" opacity="1.000000" stroke="none" 
	d="
M1153.250854,474.302185 
	C1153.628296,475.733826 1154.214233,477.401154 1154.243408,479.078186 
	C1154.355225,485.509796 1154.288574,491.944458 1153.203613,498.368378 
	C1153.203613,490.426392 1153.203613,482.484375 1153.250854,474.302185 
z"/>
<path fill="#000000" opacity="1.000000" stroke="none" 
	d="
M1202.284180,466.007202 
	C1202.259888,465.506897 1202.291870,465.180023 1202.323853,464.853180 
	C1202.563599,464.894043 1202.803467,464.934875 1203.043213,464.975708 
	C1202.808838,465.377350 1202.574585,465.778992 1202.284180,466.007202 
z"/>
<path fill="#000000" opacity="1.000000" stroke="none" 
	d="
M1202.277832,458.992279 
	C1202.598511,459.153229 1202.891479,459.472076 1203.095703,459.840240 
	C1203.127563,459.897339 1202.754028,460.179596 1202.567993,460.357788 
	C1202.452393,459.960632 1202.336792,459.563477 1202.277832,458.992279 
z"/>
<path fill="#000000" opacity="1.000000" stroke="none" 
	d="
M909.841797,460.999054 
	C909.840881,464.280457 909.840881,467.090057 909.840881,469.899689 
	C909.650818,469.904785 909.460815,469.909882 909.270752,469.914948 
	C909.270752,463.925812 909.270752,457.936707 909.270752,451.947571 
	C909.461426,451.937286 909.652039,451.927032 909.842712,451.916779 
	C909.842712,454.786957 909.842712,457.657104 909.841797,460.999054 
z"/>
<path fill="#000000" opacity="1.000000" stroke="none" 
	d="
M909.808960,499.067139 
	C909.756470,499.488922 909.715820,499.782837 909.680237,499.782257 
	C909.471619,499.778687 909.082458,499.707367 909.082153,499.656952 
	C909.054321,495.098602 909.056396,490.540131 909.823181,485.960510 
	C909.823181,490.241394 909.823181,494.522308 909.808960,499.067139 
z"/>
<path fill="#000000" opacity="1.000000" stroke="none" 
	d="
M909.772522,548.982483 
	C909.625549,549.345093 909.478455,549.560486 909.331299,549.775879 
	C909.326660,549.254211 909.321960,548.732483 909.317322,548.210815 
	C909.433533,548.272339 909.590332,548.306335 909.655579,548.402466 
	C909.734802,548.519348 909.736938,548.688660 909.772522,548.982483 
z"/>
<path fill="#000000" opacity="1.000000" stroke="none" 
	d="
M909.553101,477.037537 
	C909.646790,477.384888 909.661133,477.664856 909.630310,477.939758 
	C909.625732,477.980682 909.408813,477.997742 909.290100,478.025787 
	C909.346436,477.673340 909.402771,477.320923 909.553101,477.037537 
z"/>
<path fill="#000000" opacity="1.000000" stroke="none" 
	d="
M909.544434,533.019775 
	C909.641968,533.375305 909.641846,533.661133 909.641724,533.946899 
	C909.451538,533.850159 909.261414,533.753418 909.071289,533.656738 
	C909.196472,533.421204 909.321655,533.185608 909.544434,533.019775 
z"/>
<path fill="#000000" opacity="1.000000" stroke="none" 
	d="
M909.309692,517.260254 
	C909.329346,517.012451 909.432434,516.819946 909.535583,516.627441 
	C909.488098,516.856812 909.440613,517.086121 909.309692,517.260254 
z"/>
<path fill="#000000" opacity="1.000000" stroke="none" 
	d="
M909.183289,524.861328 
	C909.363037,524.921143 909.500671,525.071533 909.638306,525.221924 
	C909.472595,525.131897 909.306885,525.041931 909.183289,524.861328 
z"/>
<path fill="#000000" opacity="1.000000" stroke="none" 
	d="
M909.263428,508.575806 
	C909.320618,508.429047 909.403442,508.360596 909.486267,508.292114 
	C909.420532,508.412750 909.354797,508.533417 909.263428,508.575806 
z"/>
<path fill="#000000" opacity="1.000000" stroke="none" 
	d="
M909.623901,564.412903 
	C909.562134,564.571594 909.474976,564.645264 909.387817,564.718933 
	C909.458069,564.588562 909.528320,564.458252 909.623901,564.412903 
z"/>
<path fill="#000000" opacity="1.000000" stroke="none" 
	d="
M952.223267,567.800537 
	C952.021545,539.738037 952.039124,511.309387 952.028748,482.408325 
	C952.277344,483.211853 952.793457,484.487427 952.795227,485.763733 
	C952.831726,512.168152 952.812927,538.572693 952.784424,564.977173 
	C952.783508,565.796387 952.561462,566.615295 952.223267,567.800537 
z"/>
<path fill="#00512C" opacity="1.000000" stroke="none" 
	d="
M636.840149,551.866882 
	C647.604431,521.156433 658.358826,490.853058 668.756470,460.427704 
	C670.609497,455.005402 673.152222,452.667542 679.080566,452.877441 
	C698.191162,453.554199 694.019775,450.100494 700.576904,467.966461 
	C711.942261,498.933563 722.917297,530.044067 734.040039,561.100159 
	C735.827942,566.092224 735.286499,566.970947 729.843201,566.943481 
	C713.057373,566.858765 716.181274,568.969177 710.726196,553.730957 
	C705.078613,537.955078 708.456177,540.121765 691.509216,539.967407 
	C683.177673,539.891541 674.843018,540.069092 666.513245,539.928040 
	C662.174377,539.854553 659.748047,541.671509 658.543274,545.845398 
	C657.019836,551.123413 654.974854,556.249451 653.398010,561.513916 
	C652.285156,565.229065 650.174316,566.985657 646.197693,566.995117 
	C629.832031,567.034058 631.088013,567.882263 636.197693,553.642456 
	C636.366516,553.171875 636.538208,552.702332 636.840149,551.866882 
M678.027222,491.760132 
	C677.906616,491.778839 677.786011,491.797516 677.665405,491.816223 
	C677.742554,491.900787 677.819641,491.985352 677.816223,492.837341 
	C676.758179,495.972473 675.638367,499.088379 674.655701,502.246948 
	C672.919678,507.827393 671.234497,513.424255 669.590759,519.032654 
	C668.395386,523.111206 670.750366,523.947632 674.119141,523.916565 
	C680.281799,523.859680 686.446228,523.940247 692.607422,523.825745 
	C694.138306,523.797424 695.659363,523.242493 698.078125,522.746521 
	C693.063782,507.952393 688.292664,493.875977 682.925903,478.042023 
	C681.529114,481.750244 680.542236,484.250336 679.648926,486.783508 
	C679.051941,488.476379 678.588013,490.216156 678.027222,491.760132 
z"/>
<path fill="#00512C" opacity="1.000000" stroke="none" 
	d="
M479.334229,440.800720 
	C479.467621,441.530334 479.506531,442.194183 479.601837,442.849792 
	C480.669403,450.194305 478.566833,452.848816 471.224548,452.918030 
	C459.558960,453.027985 447.891754,452.971588 436.225220,452.974030 
	C424.891998,452.976410 413.558777,452.974915 402.225616,452.947754 
	C400.395416,452.943359 398.538971,452.964813 396.741150,452.680450 
	C393.068634,452.099609 390.389618,450.131989 390.427612,446.161346 
	C390.466797,442.070801 393.030426,439.786835 397.002869,439.283234 
	C399.141449,439.012146 401.327332,439.058960 403.491943,439.057312 
	C424.158386,439.041626 444.825500,438.960358 465.490784,439.115417 
	C469.775482,439.147552 474.053436,440.078735 478.731140,440.594543 
	C479.127747,440.593567 479.265991,440.731079 479.334229,440.800720 
z"/>
<path fill="#00502B" opacity="1.000000" stroke="none" 
	d="
M529.939941,424.959534 
	C529.893005,424.981415 529.701416,424.977448 529.222778,424.989594 
	C529.216431,424.911530 529.502930,424.887543 529.939941,424.959534 
z"/>
<path fill="#004925" opacity="1.000000" stroke="none" 
	d="
M582.375122,557.468628 
	C590.134155,562.976868 590.911438,569.334167 584.555237,575.675171 
	C573.030090,587.172852 561.497192,598.662903 549.938721,610.127075 
	C543.142639,616.867737 538.927490,616.874817 532.160339,610.189758 
	C526.600647,604.697388 521.065063,599.180115 515.565063,593.628052 
	C512.519104,590.553223 512.340881,581.797424 515.183594,578.968384 
	C518.232666,575.933960 524.553955,576.296631 528.165222,580.188782 
	C539.672241,592.590759 543.808044,590.653442 553.923584,579.960327 
	C559.755676,573.795288 565.573425,567.584473 571.834045,561.872620 
	C574.393738,559.537292 578.106506,558.465820 581.514404,556.955322 
	C581.947815,557.217102 582.161438,557.342896 582.375122,557.468628 
z"/>
<path fill="#00502B" opacity="1.000000" stroke="none" 
	d="
M490.954132,593.949219 
	C491.342438,592.971375 491.840942,592.081055 492.339478,591.190674 
	C492.515411,591.295288 492.691315,591.399902 492.867249,591.504517 
	C492.429169,592.282227 491.991119,593.059937 491.419006,594.024414 
	C491.284973,594.211182 491.064362,594.036621 490.954132,593.949219 
z"/>
<path fill="#00502B" opacity="1.000000" stroke="none" 
	d="
M604.973083,565.965332 
	C604.894775,566.241821 604.830566,566.530518 604.766357,566.819214 
	C604.779236,566.602966 604.792053,566.386719 604.910950,566.083923 
	C605.016968,565.997375 604.987122,565.977539 604.973083,565.965332 
z"/>
<path fill="#00502B" opacity="1.000000" stroke="none" 
	d="
M570.048035,638.973145 
	C570.061829,638.959534 569.647827,638.825684 569.647827,638.825684 
	C569.647827,638.825684 569.928955,638.866028 569.970642,638.941528 
	C570.012329,639.017090 570.034241,638.986694 570.048035,638.973145 
z"/>
<path fill="#00502B" opacity="1.000000" stroke="none" 
	d="
M605.985718,598.009644 
	C605.845886,597.954041 605.715637,597.891602 605.585388,597.829163 
	C605.718506,597.810425 605.851624,597.791687 605.996216,597.882324 
	C606.007751,597.991821 605.995361,598.002930 605.985718,598.009644 
z"/>
<path fill="#00502B" opacity="1.000000" stroke="none" 
	d="
M602.979126,560.952759 
	C602.967163,560.939514 602.883484,561.241333 602.883484,561.241333 
	C602.883484,561.241333 602.919800,561.064148 602.969604,561.024170 
	C603.019470,560.984192 602.991028,560.966003 602.979126,560.952759 
z"/>
<path fill="#00502B" opacity="1.000000" stroke="none" 
	d="
M868.532471,537.492432 
	C868.545715,537.520264 868.519287,537.464661 868.532471,537.492432 
z"/>
<path fill="#000301" opacity="1.000000" stroke="none" 
	d="
M678.064453,491.934967 
	C678.588013,490.216156 679.051941,488.476379 679.648926,486.783508 
	C680.542236,484.250336 681.529114,481.750244 682.925903,478.042023 
	C688.292664,493.875977 693.063782,507.952393 698.078125,522.746521 
	C695.659363,523.242493 694.138306,523.797424 692.607422,523.825745 
	C686.446228,523.940247 680.281799,523.859680 674.119141,523.916565 
	C670.750366,523.947632 668.395386,523.111206 669.590759,519.032654 
	C671.234497,513.424255 672.919678,507.827393 674.655701,502.246948 
	C675.638367,499.088379 676.758179,495.972473 677.898560,492.420105 
	C677.980957,492.002899 678.064514,491.934967 678.064453,491.934967 
z"/>
<path fill="#000301" opacity="1.000000" stroke="none" 
	d="
M677.938843,492.036407 
	C677.819641,491.985352 677.742554,491.900787 677.665405,491.816223 
	C677.786011,491.797516 677.906616,491.778839 678.045898,491.847534 
	C678.064514,491.934967 677.980957,492.002899 677.938843,492.036407 
z"/>
<path fill="#000301" opacity="1.000000" stroke="none" 
	d="
M582.242798,557.315430 
	C582.161438,557.342896 581.947815,557.217102 581.786133,556.976929 
	C581.838135,556.862610 582.110474,557.162231 582.242798,557.315430 
z"/>
</svg>